<?xml version="1.0" standalone="no"?>
<!DOCTYPE svg PUBLIC "-//W3C//DTD SVG 20010904//EN"
 "http://www.w3.org/TR/2001/REC-SVG-20010904/DTD/svg10.dtd">
<svg version="1.0" xmlns="http://www.w3.org/2000/svg"
 width="391.000000pt" height="391.000000pt" viewBox="0 0 391.000000 391.000000"
 preserveAspectRatio="xMidYMid meet">
<metadata>
Created by potrace 1.11, written by Peter Selinger 2001-2013
</metadata>
<g transform="translate(0.000000,391.000000) scale(0.100000,-0.100000)"
fill="#000000" stroke="none">
<path d="M830 2583 c-24 -9 -61 -46 -76 -75 -10 -19 -14 -64 -14 -150 0 -138
11 -171 72 -208 41 -25 71 -25 125 -1 49 23 73 62 73 121 l0 40 205 0 205 0
32 -29 c28 -25 33 -36 33 -76 0 -40 -5 -51 -33 -76 l-32 -29 -285 0 c-298 0
-330 4 -377 47 -17 15 -18 1 -18 -345 0 -412 1 -416 75 -452 50 -24 76 -25
122 -3 67 32 73 53 73 276 l0 197 118 -1 117 0 140 -174 c77 -95 143 -174 146
-174 4 -1 9 15 12 34 12 72 68 121 155 134 l45 6 -92 110 c-92 110 -92 110
-69 124 48 31 121 115 147 170 23 49 26 69 26 156 0 88 -3 107 -27 157 -37 80
-108 152 -187 191 l-66 32 -315 2 c-173 1 -322 0 -330 -4z"/>
<path d="M2122 2232 c-73 -163 -132 -300 -132 -304 0 -5 29 -8 64 -8 l64 0 22
55 22 55 158 0 159 0 25 -55 25 -55 65 0 c64 0 65 1 57 23 -8 20 -221 494
-251 560 -12 25 -17 27 -79 27 l-66 0 -133 -298z m257 30 l49 -112 -104 0
c-57 0 -104 1 -104 3 0 5 79 187 91 209 6 11 12 18 14 16 2 -2 26 -54 54 -116z"/>
<path d="M2910 2475 l0 -55 91 0 91 0 -4 -154 c-3 -137 -5 -158 -24 -183 -33
-45 -81 -65 -141 -59 -82 7 -113 36 -128 120 l-7 36 -60 0 -60 0 7 -47 c21
-144 117 -225 265 -225 110 0 195 48 243 137 20 37 22 57 25 263 l3 222 -150
0 -151 0 0 -55z"/>
<path d="M210 2165 l-205 -205 207 -207 208 -208 37 38 38 37 -170 170 -170
170 170 170 169 170 -34 35 c-19 19 -36 35 -40 35 -3 0 -97 -92 -210 -205z"/>
<path d="M3440 2335 l-34 -35 169 -170 170 -170 -170 -170 -170 -170 38 -37
37 -38 208 208 207 207 -205 205 c-113 113 -207 205 -210 205 -4 0 -21 -16
-40 -35z"/>
<path d="M3132 1689 c-34 -13 -44 -53 -40 -167 3 -89 6 -106 22 -118 27 -19
60 -18 79 4 14 15 17 41 17 133 0 116 -6 140 -40 151 -8 3 -25 2 -38 -3z m33
-147 c0 -140 -19 -139 -23 1 -2 85 0 108 10 105 9 -3 13 -32 13 -106z"/>
<path d="M1994 1665 c-13 -19 -15 -46 -12 -135 3 -97 6 -114 22 -126 27 -19
60 -18 79 4 14 15 17 40 17 131 0 62 -5 121 -10 132 -16 29 -75 26 -96 -6z
m61 -123 c0 -140 -19 -139 -23 1 -2 85 0 108 10 105 9 -3 13 -32 13 -106z"/>
<path d="M2180 1539 c0 -150 0 -150 23 -147 21 3 22 8 25 91 1 48 7 87 12 87
5 0 11 -39 12 -87 3 -83 4 -88 26 -91 22 -3 22 -3 22 147 l0 151 -25 0 c-22 0
-25 -4 -25 -35 0 -19 -4 -35 -10 -35 -5 0 -10 16 -10 35 0 31 -3 35 -25 35
l-25 0 0 -151z"/>
<path d="M2390 1671 c-5 -11 -10 -78 -10 -150 0 -124 1 -131 20 -131 16 0 20
7 20 35 0 24 5 35 15 35 10 0 15 -11 15 -35 0 -31 3 -35 25 -35 l25 0 0 128
c0 148 -9 172 -65 172 -24 0 -38 -6 -45 -19z m60 -91 c0 -56 -3 -70 -15 -70
-12 0 -15 14 -15 63 0 35 3 67 7 70 17 18 23 1 23 -63z"/>
<path d="M2580 1540 c0 -143 1 -150 20 -150 19 0 20 7 20 98 1 89 2 95 15 72
9 -15 14 -54 15 -97 0 -66 2 -73 20 -73 19 0 20 7 20 150 0 143 -1 150 -20
150 -15 0 -20 -7 -20 -27 l-1 -28 -15 28 c-8 15 -23 27 -34 27 -19 0 -20 -7
-20 -150z"/>
<path d="M2900 1540 c0 -143 1 -150 20 -150 19 0 20 7 20 98 1 89 2 95 15 72
9 -15 14 -54 15 -98 0 -70 1 -73 23 -70 22 3 22 6 25 151 l3 147 -26 0 c-21 0
-25 -5 -25 -27 l-1 -28 -15 28 c-8 15 -23 27 -34 27 -19 0 -20 -7 -20 -150z"/>
<path d="M1680 1603 c-39 -7 -87 -49 -100 -89 -46 -137 122 -241 224 -139 51
50 54 112 12 178 -24 35 -87 58 -136 50z"/>
<path d="M2777 1434 c-4 -4 -7 -16 -7 -26 0 -13 7 -18 26 -18 21 0 25 4 22 22
-3 23 -27 35 -41 22z"/>
</g>
</svg>
